<?xml version="1.0" encoding="UTF-8"?>
<!DOCTYPE svg PUBLIC "-//W3C//DTD SVG 1.1//EN" "http://www.w3.org/Graphics/SVG/1.1/DTD/svg11.dtd">
<svg xmlns="http://www.w3.org/2000/svg" version="1.1" width="163px" height="61px" style="shape-rendering:geometricPrecision; text-rendering:geometricPrecision; image-rendering:optimizeQuality; fill-rule:evenodd; clip-rule:evenodd" xmlns:xlink="http://www.w3.org/1999/xlink">
<g><path style="opacity:1" fill="#fdfdfc" d="M -0.5,-0.5 C 53.8333,-0.5 108.167,-0.5 162.5,-0.5C 162.5,19.8333 162.5,40.1667 162.5,60.5C 108.167,60.5 53.8333,60.5 -0.5,60.5C -0.5,40.1667 -0.5,19.8333 -0.5,-0.5 Z"/></g>
<g><path style="opacity:1" fill="#ee9595" d="M 86.5,20.5 C 85.5119,15.3595 85.1786,10.0262 85.5,4.5C 83.1667,4.5 80.8333,4.5 78.5,4.5C 78.5,18.5 78.5,32.5 78.5,46.5C 77.5041,32.3431 77.1707,18.0097 77.5,3.5C 80.5,3.5 83.5,3.5 86.5,3.5C 86.5,9.16667 86.5,14.8333 86.5,20.5 Z"/></g>
<g><path style="opacity:1" fill="#3be435" d="M 44.5,5.5 C 44.7167,9.70511 45.3833,13.7051 46.5,17.5C 46.0761,21.7032 46.5761,25.7032 48,29.5C 53.7355,20.1176 61.5688,17.951 71.5,23C 73.7337,24.6379 75.067,26.8045 75.5,29.5C 75.5,31.1667 75.5,32.8333 75.5,34.5C 69.5,34.5 63.5,34.5 57.5,34.5C 57.2322,36.099 57.5655,37.4324 58.5,38.5C 62.1932,41.2693 65.6932,40.936 69,37.5C 75.9323,38.65 76.7656,41.15 71.5,45C 62.8493,49.3426 55.516,47.8426 49.5,40.5C 49.5386,39.2438 49.0386,38.2438 48,37.5C 47.2109,39.7116 47.3775,41.7116 48.5,43.5C 48.5,44.5 48.5,45.5 48.5,46.5C 45.5,46.5 42.5,46.5 39.5,46.5C 39.6975,41.2502 39.0308,36.2502 37.5,31.5C 37.6646,28.4816 37.498,25.4816 37,22.5C 34.1921,30.127 31.3588,37.7937 28.5,45.5C 26.604,46.4656 24.604,46.7989 22.5,46.5C 20.1566,38.3018 17.3233,30.3018 14,22.5C 13.168,30.4827 12.668,38.4827 12.5,46.5C 9.16667,46.5 5.83333,46.5 2.5,46.5C 3.41434,33.1072 4.74768,19.7738 6.5,6.5C 10.0447,5.20861 13.5447,5.20861 17,6.5C 19.3469,13.7099 22.1803,20.7099 25.5,27.5C 28.4286,20.5497 31.2619,13.5497 34,6.5C 37.3936,5.54416 40.8936,5.21083 44.5,5.5 Z"/></g>
<g><path style="opacity:1" fill="#c6f8c4" d="M 44.5,5.5 C 45.2216,5.91753 45.7216,6.5842 46,7.5C 46.4983,10.8168 46.665,14.1501 46.5,17.5C 45.3833,13.7051 44.7167,9.70511 44.5,5.5 Z"/></g>
<g><path style="opacity:1" fill="#e87676" d="M 119.5,46.5 C 119.5,38.1667 119.5,29.8333 119.5,21.5C 122.167,21.5 124.833,21.5 127.5,21.5C 128.789,22.5009 130.122,22.3342 131.5,21C 137.163,19.888 141.996,21.388 146,25.5C 146.5,32.4921 146.666,39.4921 146.5,46.5C 143.5,46.5 140.5,46.5 137.5,46.5C 137.666,40.8236 137.499,35.1569 137,29.5C 133.706,26.6888 130.706,27.0221 128,30.5C 127.501,35.8229 127.334,41.1563 127.5,46.5C 124.833,46.5 122.167,46.5 119.5,46.5 Z"/></g>
<g><path style="opacity:1" fill="#e97776" d="M 86.5,20.5 C 89.6414,21.3213 92.9748,21.8213 96.5,22C 98.792,25.4162 100.959,28.9162 103,32.5C 105.453,28.9388 107.619,25.2721 109.5,21.5C 112.518,21.3354 115.518,21.502 118.5,22C 117.748,22.6708 117.414,23.5041 117.5,24.5C 111.536,35.7571 105.536,47.0904 99.5,58.5C 96.1667,59.8333 92.8333,59.8333 89.5,58.5C 93.0563,53.5961 95.7229,48.2628 97.5,42.5C 94.5242,35.8821 91.0242,29.5488 87,23.5C 86.5003,31.1594 86.3336,38.8261 86.5,46.5C 83.8333,46.5 81.1667,46.5 78.5,46.5C 78.5,32.5 78.5,18.5 78.5,4.5C 80.8333,4.5 83.1667,4.5 85.5,4.5C 85.1786,10.0262 85.5119,15.3595 86.5,20.5 Z"/></g>
<g><path style="opacity:1" fill="#f4b9b9" d="M 109.5,21.5 C 115.5,20.1667 121.5,20.1667 127.5,21.5C 124.833,21.5 122.167,21.5 119.5,21.5C 119.5,29.8333 119.5,38.1667 119.5,46.5C 118.833,39.1667 118.167,31.8333 117.5,24.5C 117.414,23.5041 117.748,22.6708 118.5,22C 115.518,21.502 112.518,21.3354 109.5,21.5 Z"/></g>
<g><path style="opacity:1" fill="#f5fdf4" d="M 66.5,29.5 C 63.3019,30.0356 60.6353,29.369 58.5,27.5C 60.7375,26.4634 63.0709,26.2967 65.5,27C 66.2524,27.6708 66.5858,28.5041 66.5,29.5 Z"/></g>
<g><path style="opacity:1" fill="#a5f3a3" d="M 58.5,27.5 C 60.6353,29.369 63.3019,30.0356 66.5,29.5C 63.7131,30.4767 60.7131,30.81 57.5,30.5C 57.2627,29.209 57.596,28.209 58.5,27.5 Z"/></g>
<g><path style="opacity:1" fill="#a2f39f" d="M 75.5,29.5 C 76.4614,31.2646 76.7947,33.2646 76.5,35.5C 70.5,35.5 64.5,35.5 58.5,35.5C 58.5,36.5 58.5,37.5 58.5,38.5C 57.5655,37.4324 57.2322,36.099 57.5,34.5C 63.5,34.5 69.5,34.5 75.5,34.5C 75.5,32.8333 75.5,31.1667 75.5,29.5 Z"/></g>
<g><path style="opacity:1" fill="#e97978" d="M 151.5,36.5 C 160.865,35.9358 162.865,39.4358 157.5,47C 149.986,46.8144 147.986,43.3144 151.5,36.5 Z"/></g>
<g><path style="opacity:1" fill="#7ded77" d="M 37.5,31.5 C 39.0308,36.2502 39.6975,41.2502 39.5,46.5C 38.2751,41.7105 37.6084,36.7105 37.5,31.5 Z"/></g>
<g><path style="opacity:1" fill="#a7f3a4" d="M 49.5,40.5 C 48.596,41.209 48.2627,42.209 48.5,43.5C 47.3775,41.7116 47.2109,39.7116 48,37.5C 49.0386,38.2438 49.5386,39.2438 49.5,40.5 Z"/></g>
</svg>
